<svg xmlns="http://www.w3.org/2000/svg" viewBox="0 0 64 64">
  <path fill="#28c7f5" d="M10 2h32l14 14v40a6 6 0 0 1-6 6H10a6 6 0 0 1-6-6V8a6 6 0 0 1 6-6z"/>
  <path fill="#b9f0ff" d="M42 2v10a4 4 0 0 0 4 4h10z"/>
  <rect x="10" y="22" width="40" height="34" rx="4" fill="#151b1e"/>
  <rect x="14" y="26" width="13" height="10" rx="2" fill="#28c7f5"/>
  <rect x="33" y="26" width="13" height="10" rx="2" fill="#28c7f5"/>
  <rect x="14" y="42" width="13" height="10" rx="2" fill="#ef5b62"/>
  <rect x="33" y="42" width="13" height="10" rx="2" fill="#00d878"/>
  <path d="m35.5 47 3 3 5-6" fill="none" stroke="#fff" stroke-width="2.8" stroke-linecap="round" stroke-linejoin="round"/>
</svg>
